<?xml version="1.0" encoding="utf-8"?>
<!-- Generator: Adobe Illustrator 15.0.0, SVG Export Plug-In . SVG Version: 6.00 Build 0)  -->
<!DOCTYPE svg PUBLIC "-//W3C//DTD SVG 1.1//EN" "http://www.w3.org/Graphics/SVG/1.1/DTD/svg11.dtd">
<svg version="1.1" id="Layer_1" xmlns="http://www.w3.org/2000/svg" xmlns:xlink="http://www.w3.org/1999/xlink" x="0px" y="0px"
	 width="35px" height="50px" viewBox="0 0 35 50" enable-background="new 0 0 35 50" xml:space="preserve">
<path fill="#288DE2" d="M18.089,49.501l-0.022-0.002c-0.971-0.043-3.244-0.652-3.899-2.177l-0.319-0.247
	c-0.857-0.653-1.667-1.271-1.835-2.547l-0.225-0.881l11.609-0.461L23.3,44.518c-0.19,1.445-0.808,2.041-1.797,2.831
	c-0.607,1.491-2.342,2.104-3.392,2.15L18.089,49.501z M13.042,44.599c0.184,0.744,0.687,1.129,1.412,1.682
	c0.142,0.108,0.289,0.221,0.439,0.34l0.114,0.09l0.048,0.138c0.354,1.018,2.122,1.603,3.034,1.651
	c0.782-0.042,2.141-0.515,2.522-1.619l0.048-0.139l0.114-0.09c1.023-0.811,1.394-1.188,1.531-2.235l0.014-0.187L13.042,44.599z"/>
<rect x="17.152" y="36.296" transform="matrix(0.04 0.9992 -0.9992 0.04 58.9261 22.6942)" fill="#288DE2" width="1" height="11.436"/>
<rect x="17.109" y="34.355" transform="matrix(0.04 0.9992 -0.9992 0.04 56.9465 20.8749)" fill="#288DE2" width="1" height="11.438"/>
<path fill="#288DE2" d="M22.844,38.782H12.407c-0.256,0-0.47-0.193-0.497-0.447c-0.504-4.775-1.728-5.941-3.948-8.057
	c-0.962-0.916-2.053-1.955-3.319-3.506c-0.041-0.05-0.07-0.105-0.089-0.164c-2.08-2.846-3.178-6.185-3.178-9.672
	c0-8.966,7.274-16.332,16.216-16.421c8.967,0.087,16.254,7.44,16.254,16.393c0,3.484-1.089,6.813-3.152,9.643
	c-0.008,0.08-0.035,0.156-0.088,0.222c-1.266,1.552-2.356,2.591-3.319,3.508c-2.22,2.115-3.441,3.28-3.945,8.055
	C23.314,38.589,23.1,38.782,22.844,38.782z M12.853,37.782h9.544c0.579-4.776,2.032-6.161,4.199-8.226
	c0.9-0.858,1.916-1.826,3.076-3.226c0.01-0.066,0.033-0.129,0.075-0.185c2.026-2.697,3.098-5.891,3.098-9.238
	c0-8.406-6.843-15.311-15.254-15.393C9.206,1.599,2.376,8.517,2.376,16.937c0,3.342,1.075,6.541,3.11,9.251
	c0.027,0.035,0.048,0.074,0.064,0.114c1.17,1.414,2.194,2.389,3.101,3.253C10.819,31.619,12.273,33.005,12.853,37.782z"/>
</svg>
